<mxfile host="Electron" modified="2024-08-17T22:11:40.665Z" agent="Mozilla/5.0 (Macintosh; Intel Mac OS X 10_15_7) AppleWebKit/537.36 (KHTML, like Gecko) draw.io/24.5.3 Chrome/124.0.6367.207 Electron/30.0.6 Safari/537.36" etag="Ga0TftHI0luDT24ZI34R" version="24.5.3" type="device">
  <diagram name="Page-1" id="YmXKTbXznHbvRH47uE-R">
    <mxGraphModel dx="34" dy="820" grid="1" gridSize="10" guides="1" tooltips="1" connect="1" arrows="1" fold="1" page="1" pageScale="1" pageWidth="1100" pageHeight="850" math="0" shadow="0">
      <root>
        <mxCell id="0" />
        <mxCell id="1" parent="0" />
        <mxCell id="xontw5LpApdB3VqPf-ii-49" value="" style="rounded=0;whiteSpace=wrap;html=1;fillColor=none;dashed=1;dashPattern=12 12;" parent="1" vertex="1">
          <mxGeometry x="1378" y="170" width="452" height="104" as="geometry" />
        </mxCell>
        <mxCell id="xontw5LpApdB3VqPf-ii-3" value="" style="edgeStyle=orthogonalEdgeStyle;rounded=0;orthogonalLoop=1;jettySize=auto;html=1;" parent="1" source="xontw5LpApdB3VqPf-ii-1" target="xontw5LpApdB3VqPf-ii-2" edge="1">
          <mxGeometry relative="1" as="geometry" />
        </mxCell>
        <mxCell id="xontw5LpApdB3VqPf-ii-1" value="Resize" style="rounded=0;whiteSpace=wrap;html=1;" parent="1" vertex="1">
          <mxGeometry x="1388" y="203" width="120" height="60" as="geometry" />
        </mxCell>
        <mxCell id="xontw5LpApdB3VqPf-ii-5" value="" style="edgeStyle=orthogonalEdgeStyle;rounded=0;orthogonalLoop=1;jettySize=auto;html=1;" parent="1" source="xontw5LpApdB3VqPf-ii-2" target="xontw5LpApdB3VqPf-ii-4" edge="1">
          <mxGeometry relative="1" as="geometry" />
        </mxCell>
        <mxCell id="xontw5LpApdB3VqPf-ii-2" value="Flatten image to 1D array" style="rounded=0;whiteSpace=wrap;html=1;" parent="1" vertex="1">
          <mxGeometry x="1543" y="203" width="120" height="60" as="geometry" />
        </mxCell>
        <mxCell id="xontw5LpApdB3VqPf-ii-7" value="" style="edgeStyle=orthogonalEdgeStyle;rounded=0;orthogonalLoop=1;jettySize=auto;html=1;" parent="1" source="xontw5LpApdB3VqPf-ii-4" target="xontw5LpApdB3VqPf-ii-6" edge="1">
          <mxGeometry relative="1" as="geometry" />
        </mxCell>
        <mxCell id="xontw5LpApdB3VqPf-ii-4" value="Save resized data in npy and info in csv" style="rounded=0;whiteSpace=wrap;html=1;" parent="1" vertex="1">
          <mxGeometry x="1698" y="203" width="120" height="60" as="geometry" />
        </mxCell>
        <mxCell id="xontw5LpApdB3VqPf-ii-10" value="" style="edgeStyle=orthogonalEdgeStyle;rounded=0;orthogonalLoop=1;jettySize=auto;html=1;" parent="1" source="xontw5LpApdB3VqPf-ii-6" target="xontw5LpApdB3VqPf-ii-9" edge="1">
          <mxGeometry relative="1" as="geometry" />
        </mxCell>
        <mxCell id="xontw5LpApdB3VqPf-ii-6" value="Re-load data" style="rounded=0;whiteSpace=wrap;html=1;" parent="1" vertex="1">
          <mxGeometry x="1853" y="203" width="120" height="60" as="geometry" />
        </mxCell>
        <mxCell id="xontw5LpApdB3VqPf-ii-12" value="" style="edgeStyle=orthogonalEdgeStyle;rounded=0;orthogonalLoop=1;jettySize=auto;html=1;" parent="1" source="xontw5LpApdB3VqPf-ii-9" target="xontw5LpApdB3VqPf-ii-11" edge="1">
          <mxGeometry relative="1" as="geometry" />
        </mxCell>
        <mxCell id="xontw5LpApdB3VqPf-ii-9" value="Split and Scale data" style="rounded=0;whiteSpace=wrap;html=1;" parent="1" vertex="1">
          <mxGeometry x="2008" y="203" width="120" height="60" as="geometry" />
        </mxCell>
        <mxCell id="xontw5LpApdB3VqPf-ii-30" style="edgeStyle=orthogonalEdgeStyle;rounded=0;orthogonalLoop=1;jettySize=auto;html=1;entryX=1;entryY=0.5;entryDx=0;entryDy=0;" parent="1" source="xontw5LpApdB3VqPf-ii-11" target="xontw5LpApdB3VqPf-ii-14" edge="1">
          <mxGeometry relative="1" as="geometry">
            <Array as="points">
              <mxPoint x="1988" y="365" />
              <mxPoint x="1988" y="312" />
            </Array>
          </mxGeometry>
        </mxCell>
        <mxCell id="xontw5LpApdB3VqPf-ii-31" style="edgeStyle=orthogonalEdgeStyle;rounded=0;orthogonalLoop=1;jettySize=auto;html=1;" parent="1" source="xontw5LpApdB3VqPf-ii-11" edge="1">
          <mxGeometry relative="1" as="geometry">
            <mxPoint x="1973.5555555555557" y="347.27777777777777" as="targetPoint" />
          </mxGeometry>
        </mxCell>
        <mxCell id="xontw5LpApdB3VqPf-ii-32" style="edgeStyle=orthogonalEdgeStyle;rounded=0;orthogonalLoop=1;jettySize=auto;html=1;entryX=1;entryY=0.5;entryDx=0;entryDy=0;" parent="1" source="xontw5LpApdB3VqPf-ii-11" target="xontw5LpApdB3VqPf-ii-28" edge="1">
          <mxGeometry relative="1" as="geometry" />
        </mxCell>
        <mxCell id="xontw5LpApdB3VqPf-ii-33" style="edgeStyle=orthogonalEdgeStyle;rounded=0;orthogonalLoop=1;jettySize=auto;html=1;entryX=1;entryY=0.5;entryDx=0;entryDy=0;" parent="1" source="xontw5LpApdB3VqPf-ii-11" target="xontw5LpApdB3VqPf-ii-29" edge="1">
          <mxGeometry relative="1" as="geometry">
            <Array as="points">
              <mxPoint x="1988" y="365" />
              <mxPoint x="1988" y="419" />
            </Array>
          </mxGeometry>
        </mxCell>
        <mxCell id="xontw5LpApdB3VqPf-ii-11" value="Apply feature reduction" style="rounded=0;whiteSpace=wrap;html=1;" parent="1" vertex="1">
          <mxGeometry x="2008" y="335" width="120" height="60" as="geometry" />
        </mxCell>
        <mxCell id="xontw5LpApdB3VqPf-ii-41" style="edgeStyle=orthogonalEdgeStyle;rounded=0;orthogonalLoop=1;jettySize=auto;html=1;entryX=1;entryY=0.5;entryDx=0;entryDy=0;" parent="1" source="xontw5LpApdB3VqPf-ii-14" target="xontw5LpApdB3VqPf-ii-40" edge="1">
          <mxGeometry relative="1" as="geometry">
            <Array as="points">
              <mxPoint x="1833" y="311" />
              <mxPoint x="1833" y="365" />
            </Array>
          </mxGeometry>
        </mxCell>
        <mxCell id="xontw5LpApdB3VqPf-ii-14" value="&lt;font style=&quot;font-size: 11.5px;&quot;&gt;Random Projection (RP)&lt;/font&gt;" style="rounded=0;whiteSpace=wrap;html=1;" parent="1" vertex="1">
          <mxGeometry x="1853" y="297" width="120" height="29" as="geometry" />
        </mxCell>
        <mxCell id="xontw5LpApdB3VqPf-ii-42" style="edgeStyle=orthogonalEdgeStyle;rounded=0;orthogonalLoop=1;jettySize=auto;html=1;entryX=1;entryY=0.5;entryDx=0;entryDy=0;" parent="1" source="xontw5LpApdB3VqPf-ii-15" target="xontw5LpApdB3VqPf-ii-40" edge="1">
          <mxGeometry relative="1" as="geometry" />
        </mxCell>
        <mxCell id="xontw5LpApdB3VqPf-ii-15" value="&lt;font style=&quot;font-size: 11.5px;&quot;&gt;Linear Discriminant Analysis (LDA)&lt;/font&gt;" style="rounded=0;whiteSpace=wrap;html=1;" parent="1" vertex="1">
          <mxGeometry x="1853" y="333" width="120" height="29" as="geometry" />
        </mxCell>
        <mxCell id="xontw5LpApdB3VqPf-ii-47" style="edgeStyle=orthogonalEdgeStyle;rounded=0;orthogonalLoop=1;jettySize=auto;html=1;entryX=1;entryY=0.5;entryDx=0;entryDy=0;" parent="1" source="xontw5LpApdB3VqPf-ii-18" target="xontw5LpApdB3VqPf-ii-20" edge="1">
          <mxGeometry relative="1" as="geometry" />
        </mxCell>
        <mxCell id="xontw5LpApdB3VqPf-ii-18" value="RandomForest (RF)&lt;div&gt;Classifer&lt;/div&gt;" style="rounded=0;whiteSpace=wrap;html=1;" parent="1" vertex="1">
          <mxGeometry x="1545" y="308" width="120" height="60" as="geometry" />
        </mxCell>
        <mxCell id="xontw5LpApdB3VqPf-ii-48" style="edgeStyle=orthogonalEdgeStyle;rounded=0;orthogonalLoop=1;jettySize=auto;html=1;entryX=1;entryY=0.5;entryDx=0;entryDy=0;" parent="1" source="xontw5LpApdB3VqPf-ii-19" target="xontw5LpApdB3VqPf-ii-20" edge="1">
          <mxGeometry relative="1" as="geometry">
            <Array as="points">
              <mxPoint x="1525" y="420" />
              <mxPoint x="1525" y="370" />
            </Array>
          </mxGeometry>
        </mxCell>
        <mxCell id="xontw5LpApdB3VqPf-ii-19" value="LDA Classifier" style="rounded=0;whiteSpace=wrap;html=1;" parent="1" vertex="1">
          <mxGeometry x="1545" y="377" width="120" height="60" as="geometry" />
        </mxCell>
        <mxCell id="xontw5LpApdB3VqPf-ii-20" value="Performance comparison" style="rounded=0;whiteSpace=wrap;html=1;" parent="1" vertex="1">
          <mxGeometry x="1388" y="340" width="120" height="60" as="geometry" />
        </mxCell>
        <mxCell id="xontw5LpApdB3VqPf-ii-43" style="edgeStyle=orthogonalEdgeStyle;rounded=0;orthogonalLoop=1;jettySize=auto;html=1;entryX=1;entryY=0.5;entryDx=0;entryDy=0;" parent="1" source="xontw5LpApdB3VqPf-ii-28" target="xontw5LpApdB3VqPf-ii-40" edge="1">
          <mxGeometry relative="1" as="geometry" />
        </mxCell>
        <mxCell id="xontw5LpApdB3VqPf-ii-28" value="&lt;span style=&quot;font-size: 11.5px;&quot;&gt;Linear Optimal Low-Rank Projection (LOL)&lt;/span&gt;" style="rounded=0;whiteSpace=wrap;html=1;" parent="1" vertex="1">
          <mxGeometry x="1853" y="368" width="120" height="29" as="geometry" />
        </mxCell>
        <mxCell id="xontw5LpApdB3VqPf-ii-44" style="edgeStyle=orthogonalEdgeStyle;rounded=0;orthogonalLoop=1;jettySize=auto;html=1;entryX=1;entryY=0.5;entryDx=0;entryDy=0;" parent="1" source="xontw5LpApdB3VqPf-ii-29" target="xontw5LpApdB3VqPf-ii-40" edge="1">
          <mxGeometry relative="1" as="geometry">
            <Array as="points">
              <mxPoint x="1833" y="419" />
              <mxPoint x="1833" y="365" />
            </Array>
          </mxGeometry>
        </mxCell>
        <mxCell id="xontw5LpApdB3VqPf-ii-29" value="&lt;span style=&quot;font-size: 11.5px;&quot;&gt;Principal Component Analysis (PCA)&lt;/span&gt;" style="rounded=0;whiteSpace=wrap;html=1;" parent="1" vertex="1">
          <mxGeometry x="1853" y="404" width="120" height="29" as="geometry" />
        </mxCell>
        <mxCell id="xontw5LpApdB3VqPf-ii-45" style="edgeStyle=orthogonalEdgeStyle;rounded=0;orthogonalLoop=1;jettySize=auto;html=1;entryX=1;entryY=0.5;entryDx=0;entryDy=0;" parent="1" source="xontw5LpApdB3VqPf-ii-40" target="xontw5LpApdB3VqPf-ii-18" edge="1">
          <mxGeometry relative="1" as="geometry" />
        </mxCell>
        <mxCell id="xontw5LpApdB3VqPf-ii-46" style="edgeStyle=orthogonalEdgeStyle;rounded=0;orthogonalLoop=1;jettySize=auto;html=1;entryX=1.002;entryY=0.535;entryDx=0;entryDy=0;entryPerimeter=0;exitX=0;exitY=0.5;exitDx=0;exitDy=0;" parent="1" source="xontw5LpApdB3VqPf-ii-40" target="xontw5LpApdB3VqPf-ii-19" edge="1">
          <mxGeometry relative="1" as="geometry">
            <mxPoint x="1709" y="365.5" as="sourcePoint" />
            <mxPoint x="1674" y="407.5" as="targetPoint" />
            <Array as="points">
              <mxPoint x="1680" y="365" />
              <mxPoint x="1680" y="409" />
            </Array>
          </mxGeometry>
        </mxCell>
        <mxCell id="xontw5LpApdB3VqPf-ii-40" value="Modeling" style="rounded=0;whiteSpace=wrap;html=1;" parent="1" vertex="1">
          <mxGeometry x="1700" y="335" width="120" height="60" as="geometry" />
        </mxCell>
        <mxCell id="xontw5LpApdB3VqPf-ii-50" value="Preprocessing steps" style="text;html=1;align=center;verticalAlign=middle;whiteSpace=wrap;rounded=0;" parent="1" vertex="1">
          <mxGeometry x="1529" y="170" width="141" height="30" as="geometry" />
        </mxCell>
        <mxCell id="r3Na6jFTcN7GJsO4XyoO-3" value="" style="edgeStyle=orthogonalEdgeStyle;rounded=0;orthogonalLoop=1;jettySize=auto;html=1;entryX=0;entryY=0.5;entryDx=0;entryDy=0;" parent="1" source="r3Na6jFTcN7GJsO4XyoO-1" target="xontw5LpApdB3VqPf-ii-1" edge="1">
          <mxGeometry relative="1" as="geometry" />
        </mxCell>
        <mxCell id="r3Na6jFTcN7GJsO4XyoO-1" value="Brain Image dataset" style="rounded=0;whiteSpace=wrap;html=1;" parent="1" vertex="1">
          <mxGeometry x="1220" y="203" width="120" height="60" as="geometry" />
        </mxCell>
        <mxCell id="r3Na6jFTcN7GJsO4XyoO-6" value="" style="rounded=0;whiteSpace=wrap;html=1;fillColor=none;dashed=1;dashPattern=12 12;" parent="1" vertex="1">
          <mxGeometry x="1380" y="484" width="303" height="104" as="geometry" />
        </mxCell>
        <mxCell id="r3Na6jFTcN7GJsO4XyoO-7" value="" style="edgeStyle=orthogonalEdgeStyle;rounded=0;orthogonalLoop=1;jettySize=auto;html=1;" parent="1" source="r3Na6jFTcN7GJsO4XyoO-8" target="r3Na6jFTcN7GJsO4XyoO-10" edge="1">
          <mxGeometry relative="1" as="geometry" />
        </mxCell>
        <mxCell id="r3Na6jFTcN7GJsO4XyoO-8" value="Resize" style="rounded=0;whiteSpace=wrap;html=1;" parent="1" vertex="1">
          <mxGeometry x="1390" y="517" width="120" height="60" as="geometry" />
        </mxCell>
        <mxCell id="r3Na6jFTcN7GJsO4XyoO-9" value="" style="edgeStyle=orthogonalEdgeStyle;rounded=0;orthogonalLoop=1;jettySize=auto;html=1;" parent="1" source="r3Na6jFTcN7GJsO4XyoO-10" target="r3Na6jFTcN7GJsO4XyoO-12" edge="1">
          <mxGeometry relative="1" as="geometry" />
        </mxCell>
        <mxCell id="r3Na6jFTcN7GJsO4XyoO-10" value="Transform image to 3D array" style="rounded=0;whiteSpace=wrap;html=1;" parent="1" vertex="1">
          <mxGeometry x="1545" y="517" width="120" height="60" as="geometry" />
        </mxCell>
        <mxCell id="r3Na6jFTcN7GJsO4XyoO-11" value="" style="edgeStyle=orthogonalEdgeStyle;rounded=0;orthogonalLoop=1;jettySize=auto;html=1;entryX=0.025;entryY=0.5;entryDx=0;entryDy=0;entryPerimeter=0;" parent="1" source="r3Na6jFTcN7GJsO4XyoO-12" target="r3Na6jFTcN7GJsO4XyoO-16" edge="1">
          <mxGeometry relative="1" as="geometry">
            <mxPoint x="1855" y="547" as="targetPoint" />
          </mxGeometry>
        </mxCell>
        <mxCell id="r3Na6jFTcN7GJsO4XyoO-12" value="Split data" style="rounded=0;whiteSpace=wrap;html=1;" parent="1" vertex="1">
          <mxGeometry x="1700" y="517" width="120" height="60" as="geometry" />
        </mxCell>
        <mxCell id="r3Na6jFTcN7GJsO4XyoO-13" value="Preprocessing steps" style="text;html=1;align=center;verticalAlign=middle;whiteSpace=wrap;rounded=0;" parent="1" vertex="1">
          <mxGeometry x="1461" y="484" width="141" height="30" as="geometry" />
        </mxCell>
        <mxCell id="r3Na6jFTcN7GJsO4XyoO-14" value="" style="edgeStyle=orthogonalEdgeStyle;rounded=0;orthogonalLoop=1;jettySize=auto;html=1;entryX=0;entryY=0.5;entryDx=0;entryDy=0;" parent="1" source="r3Na6jFTcN7GJsO4XyoO-15" target="r3Na6jFTcN7GJsO4XyoO-8" edge="1">
          <mxGeometry relative="1" as="geometry" />
        </mxCell>
        <mxCell id="r3Na6jFTcN7GJsO4XyoO-15" value="Brain Image dataset" style="rounded=0;whiteSpace=wrap;html=1;" parent="1" vertex="1">
          <mxGeometry x="1222" y="517" width="120" height="60" as="geometry" />
        </mxCell>
        <mxCell id="r3Na6jFTcN7GJsO4XyoO-20" value="" style="edgeStyle=orthogonalEdgeStyle;rounded=0;orthogonalLoop=1;jettySize=auto;html=1;" parent="1" source="r3Na6jFTcN7GJsO4XyoO-16" target="r3Na6jFTcN7GJsO4XyoO-19" edge="1">
          <mxGeometry relative="1" as="geometry" />
        </mxCell>
        <mxCell id="r3Na6jFTcN7GJsO4XyoO-16" value="CNN modeling" style="whiteSpace=wrap;html=1;rounded=0;" parent="1" vertex="1">
          <mxGeometry x="1854" y="517" width="120" height="60" as="geometry" />
        </mxCell>
        <mxCell id="r3Na6jFTcN7GJsO4XyoO-19" value="Performance comparison" style="whiteSpace=wrap;html=1;rounded=0;" parent="1" vertex="1">
          <mxGeometry x="2008" y="517" width="120" height="60" as="geometry" />
        </mxCell>
      </root>
    </mxGraphModel>
  </diagram>
</mxfile>
